<svg width="157" height="51" viewBox="0 0 157 51" fill="none" xmlns="http://www.w3.org/2000/svg">
<g clip-path="url(#clip0_54_383)">
<path d="M23.5704 46.041C23.5002 45.4121 23.7854 44.8089 23.896 44.2291C24.5699 40.6747 25.0912 37.107 26.0099 33.6023C26.2284 32.7685 26.6892 31.8717 26.7234 30.9969C26.7286 30.8659 26.7848 30.7454 26.5944 30.7821L25.8265 32.0289C23.4186 32.5563 20.6009 32.2079 18.622 33.9227C17.9551 34.4998 17.5312 35.2123 16.9565 35.8401C15.018 37.9531 11.8914 39.3309 9.32988 40.5454C8.33476 42.1276 7.13692 43.7881 6.27431 45.4402C6.01371 45.9386 5.71884 47.0317 5.48192 47.3549C5.28888 47.6176 4.65616 47.8613 4.33498 48.132C3.37146 48.944 3.47326 49.6407 2.1008 50.1812C1.44353 50.4398 0.698513 50.5804 0 50.6623L0.0175506 50.376C0.506335 49.819 0.974058 48.8576 1.52866 48.3914C2.08325 47.9252 2.90287 47.7372 3.45132 47.1654C4.08753 46.502 5.08789 43.9717 5.49246 43.0059C5.99704 41.8008 6.38663 40.541 6.88245 39.3309C7.01407 39.1039 7.70995 38.9126 7.97762 38.7642C10.4505 37.3864 11.6553 34.8517 12.267 32.1773C11.7729 32.1607 11.3034 32.4428 10.8208 32.4454C9.57732 32.4515 8.52607 31.6989 8.41197 30.4328C10.9182 31.3479 12.8839 29.1546 14.8688 28.0073C19.2442 25.4796 25.178 26.0244 28.8689 22.93C30.2897 21.7391 30.7538 20.2111 31.2374 18.4858C32.881 20.8075 33.3505 23.9289 32.8327 26.7002C32.2816 29.654 30.4222 32.0865 29.0172 34.6745C27.6544 37.1847 26.4487 39.7875 25.458 42.469C25.1807 43.2207 25.0982 44.5427 24.784 45.1591C24.6629 45.3973 24.326 45.7876 23.5713 46.041H23.5704Z" fill="white"/>
<path d="M33.6128 10.1676C33.3232 10.4444 32.8108 10.9892 32.5255 11.2773C31.9894 11.8178 31.9534 11.8771 31.2321 12.7258C31.6507 12.6525 33.3171 11.7514 33.7453 11.4772L35.2231 10.2898C35.0625 11.2642 34.7852 12.0596 34.1674 12.8359C34.0893 12.9345 32.6528 14.0093 32.73 14.0827C34.0919 16.0219 34.0777 16.0219 34.8378 17.7245C37.1765 22.9633 35.2265 27.9191 34.8378 28.5949C34.4379 29.2902 33.7357 30.3447 33.7357 30.3447C35.4609 30.4337 37.4239 30.5402 39.0991 30.9812C40.3119 31.2999 41.2572 31.7434 40.2583 33.0452C38.7788 34.974 35.059 38.1932 32.8169 39.0663C32.5493 39.1702 31.2847 39.6592 31.1075 39.5003C31.3321 39.0131 31.4558 38.1941 31.8069 37.7994C32.2017 37.355 33.0591 37.4799 33.6216 37.2511C34.357 36.9507 36.3551 34.8736 36.9351 34.1829C37.1352 33.9454 37.7214 33.3569 37.1765 33.2469C36.413 33.0933 34.9467 33.1684 34.1314 33.2234C32.8617 33.3098 31.5936 33.5979 30.3186 33.6573C31.0083 32.6497 31.4769 31.4823 32.1561 30.473C32.7756 29.2934 33.5071 27.9572 33.6777 27.1595C34.2674 24.4039 34.0945 22.7746 33.1705 20.1256C32.637 18.5967 31.7261 17.4433 30.9679 17.2722C29.9948 17.0522 29.7692 17.6703 29.0839 18.0868C28.6627 18.3427 28.0642 18.5313 27.7132 18.8054C27.2209 19.1896 26.8699 20.136 26.138 20.2993C25.7818 20.3788 24.877 20.1352 24.8007 19.7492C24.6761 19.118 25.3377 17.8659 25.4729 17.1089C25.6159 16.3109 25.4808 15.8429 25.5045 15.1427C25.5202 14.665 25.73 14.0617 26.303 13.4479C26.303 13.4479 26.4241 12.2657 26.5873 11.8798C27.5666 9.5625 29.6447 8.67799 30.344 5.82464C30.7345 4.23031 30.5836 2.66216 30.4063 1.04688L31.0215 2.04661C32.0666 4.66598 32.014 7.50628 30.3537 9.84537C29.6824 10.791 28.5539 11.5043 28.3906 12.7302C28.5591 12.7669 28.5995 12.6446 28.6881 12.5477C30.9197 10.1169 34.1042 8.56013 34.9379 5.07723C35.3591 3.31614 34.9835 1.69648 34.5246 0L34.9493 0.491572C36.9957 3.69333 36.3059 7.59358 33.6137 10.1676H33.6128ZM27.3359 16.5353C28.1563 16.3092 28.288 15.691 28.2783 15.3373C27.4508 15.4901 27.3824 15.9128 27.3359 16.5353Z" fill="white"/>
<path d="M25.7388 32.4385C25.7581 33.102 23.631 35.0098 23.3317 35.2543C23.1501 35.4027 22.5472 36.7683 22.291 37.1394C20.7746 39.3353 19.0801 39.4671 16.9346 40.529C16.158 40.9129 16.5906 41.8534 16.8187 42.5136C17.29 43.8773 18.1157 45.4427 18.823 46.7104C19.2434 47.4642 19.7207 47.7417 19.5391 48.6858C19.3829 49.3098 18.2754 48.0107 18.1508 47.8152C17.9867 47.5586 17.8656 47.1602 17.6831 46.8851C16.2878 44.7809 14.6574 42.8043 13.5728 40.5129C14.266 40.0172 14.9549 39.5003 15.5963 38.9363C16.8556 37.8283 19.2662 33.7359 20.6948 33.3535C22.3972 32.8977 24.1795 32.7598 25.7379 32.4393L25.7388 32.4385Z" fill="white"/>
<path d="M5.9668 50.6415L24.8345 49.3592L21.9067 46.6402L28.2481 48.3991L26.4614 44.5588C27.675 45.4097 31.339 47.5196 31.339 47.5196L30.4137 45.1997L32.6398 47.2779C32.8119 46.6016 33.455 45.1997 33.455 45.1997C33.6237 45.5969 34.5146 46.8012 34.5146 46.8012C34.7819 46.7173 36.9109 42.5549 37.2793 41.9976L36.549 46.798C37.3804 46.8558 40.2854 43.9336 40.5334 43.9207L38.9878 48.077L44.5173 46.4787L41.4201 49.2753L45.4625 50.6382H36.3827L38.1727 49.2014L36.223 49.3592L36.6305 48.2412L35.2911 49.4576C35.2911 49.4576 35.3133 48.2798 35.2449 47.7577C35.2449 47.7577 34.4135 49.0854 33.8657 49.6717L32.1573 48.238L32.6431 49.9969L30.2076 49.0368L31.5085 50.6382H5.9668V50.6415Z" fill="#C9A24D"/>
<path d="M55.7407 38.3021C54.9602 38.3021 54.2406 38.1799 53.5819 37.9353C52.9329 37.6814 52.3638 37.324 51.8747 36.8631C51.3952 36.4023 51.019 35.8615 50.7462 35.2407C50.4826 34.6199 50.3511 33.9381 50.3511 33.195C50.3511 32.452 50.4826 31.7701 50.7462 31.1493C51.019 30.5286 51.3996 29.9878 51.8888 29.5269C52.378 29.066 52.9519 28.7133 53.6101 28.4688C54.2688 28.2149 54.9929 28.0879 55.7831 28.0879C56.6577 28.0879 57.4431 28.2337 58.1393 28.5252C58.8448 28.8168 59.4373 29.24 59.9168 29.795L58.4497 31.1493C58.0925 30.7731 57.7018 30.4957 57.2785 30.317C56.8551 30.1289 56.3942 30.0348 55.8957 30.0348C55.4162 30.0348 54.9787 30.11 54.5836 30.2605C54.1885 30.411 53.8454 30.6273 53.5536 30.9095C53.2715 31.1917 53.0503 31.5256 52.8905 31.9112C52.74 32.2968 52.6649 32.7248 52.6649 33.195C52.6649 33.6559 52.74 34.0791 52.8905 34.4647C53.0503 34.8504 53.2715 35.1889 53.5536 35.4805C53.8454 35.7627 54.1841 35.979 54.5695 36.1295C54.9646 36.28 55.3977 36.3552 55.8675 36.3552C56.3191 36.3552 56.7566 36.2847 57.18 36.1436C57.6126 35.9931 58.0308 35.7439 58.4356 35.3959L59.7335 37.0465C59.1976 37.451 58.572 37.7613 57.8572 37.9777C57.1517 38.194 56.4462 38.3021 55.7407 38.3021ZM57.6453 36.7503V33.0398H59.7335V37.0465L57.6453 36.7503ZM66.6536 38.3021C65.8731 38.3021 65.1486 38.1752 64.4811 37.9212C63.8224 37.6673 63.2489 37.3099 62.7597 36.849C62.2798 36.3881 61.9037 35.8474 61.6309 35.2266C61.3673 34.6058 61.2357 33.9286 61.2357 33.195C61.2357 32.4614 61.3673 31.7842 61.6309 31.1635C61.9037 30.5427 62.2847 30.0019 62.7739 29.541C63.263 29.0801 63.8365 28.7227 64.4952 28.4688C65.1535 28.2149 65.8682 28.0879 66.6395 28.0879C67.4201 28.0879 68.1353 28.2149 68.7843 28.4688C69.4429 28.7227 70.0116 29.0801 70.4915 29.541C70.9806 30.0019 71.3616 30.5427 71.6341 31.1635C71.9069 31.7748 72.0433 32.452 72.0433 33.195C72.0433 33.9286 71.9069 34.6105 71.6341 35.2407C71.3616 35.8615 70.9806 36.4023 70.4915 36.8631C70.0116 37.3146 69.4429 37.6673 68.7843 37.9212C68.1353 38.1752 67.4253 38.3021 66.6536 38.3021ZM66.6395 36.3552C67.0815 36.3552 67.4863 36.28 67.8531 36.1295C68.2293 35.979 68.5586 35.7627 68.8408 35.4805C69.1229 35.1984 69.3388 34.8645 69.4897 34.4789C69.6496 34.0932 69.7295 33.6653 69.7295 33.195C69.7295 32.7248 69.6496 32.2968 69.4897 31.9112C69.3388 31.5256 69.1229 31.1917 68.8408 30.9095C68.5679 30.6273 68.2434 30.411 67.8673 30.2605C67.4907 30.11 67.0815 30.0348 66.6395 30.0348C66.1976 30.0348 65.7887 30.11 65.4122 30.2605C65.0453 30.411 64.7208 30.6273 64.4387 30.9095C64.1566 31.1917 63.9354 31.5256 63.7756 31.9112C63.625 32.2968 63.5496 32.7248 63.5496 33.195C63.5496 33.6559 63.625 34.0838 63.7756 34.4789C63.9354 34.8645 64.1517 35.1984 64.4246 35.4805C64.7067 35.7627 65.0356 35.979 65.4122 36.1295C65.7887 36.28 66.1976 36.3552 66.6395 36.3552ZM73.761 38.1328V28.2572H76.0466V36.2706H80.9988V38.1328H73.761ZM82.2762 38.1328V28.2572H86.7626C87.8349 28.2572 88.7802 28.4641 89.5987 28.8779C90.4167 29.2824 91.0569 29.8514 91.5174 30.585C91.9783 31.3186 92.2087 32.1887 92.2087 33.195C92.2087 34.192 91.9783 35.062 91.5174 35.805C91.0569 36.5386 90.4167 37.1124 89.5987 37.5262C88.7802 37.9307 87.8349 38.1328 86.7626 38.1328H82.2762ZM84.5617 36.2565H86.65C87.3082 36.2565 87.8773 36.1342 88.3572 35.8896C88.8463 35.6357 89.2225 35.2783 89.4856 34.8174C89.7589 34.3566 89.8949 33.8158 89.8949 33.195C89.8949 32.5648 89.7589 32.024 89.4856 31.5726C89.2225 31.1117 88.8463 30.759 88.3572 30.5145C87.8773 30.2605 87.3082 30.1336 86.65 30.1336H84.5617V36.2565ZM96.0348 32.2357H100.79V34.0133H96.0348V32.2357ZM96.2044 36.2988H101.58V38.1328H93.9329V28.2572H101.396V30.0912H96.2044V36.2988ZM103.398 38.1328V28.2572H105.289L111.116 35.3677H110.199V28.2572H112.456V38.1328H110.58L104.738 31.0224H105.655V38.1328H103.398ZM117.491 38.1328L121.893 28.2572H124.15L128.566 38.1328H126.168L122.556 29.4141H123.459L119.833 38.1328H117.491ZM119.692 36.0166L120.298 34.2813H125.378L125.998 36.0166H119.692Z" fill="white"/>
<path d="M50.3511 50.32L54.7899 40.3895H56.5931L61.046 50.32H59.1298L55.3109 41.3681H56.0438L52.2391 50.32H50.3511ZM52.3941 48.0218L52.8873 46.5745H58.214L58.7068 48.0218H52.3941ZM65.3585 50.4618C64.588 50.4618 63.8507 50.3529 63.146 50.1353C62.4417 49.9084 61.8823 49.6201 61.4694 49.2703L62.1035 47.8371C62.4978 48.1495 62.9861 48.4093 63.5689 48.6173C64.1509 48.8258 64.7474 48.9298 65.3585 48.9298C65.8747 48.9298 66.2928 48.8727 66.6125 48.7595C66.9317 48.6458 67.1666 48.4945 67.3172 48.3053C67.4669 48.1069 67.5424 47.8845 67.5424 47.6387C67.5424 47.3359 67.4342 47.095 67.2183 46.9151C67.002 46.7259 66.7202 46.5793 66.3727 46.4753C66.0349 46.3617 65.6543 46.2577 65.2314 46.1633C64.8181 46.0685 64.4004 45.9601 63.9774 45.8368C63.5637 45.7047 63.1835 45.5389 62.836 45.3405C62.4978 45.1325 62.2205 44.8582 62.0046 44.5177C61.7883 44.1771 61.6805 43.7422 61.6805 43.2125C61.6805 42.6732 61.8214 42.1817 62.1035 41.7372C62.3941 41.283 62.8312 40.9236 63.414 40.6589C64.0056 40.3847 64.7523 40.2473 65.6543 40.2473C66.246 40.2473 66.8328 40.3232 67.4156 40.4746C67.998 40.626 68.5054 40.8433 68.9376 41.1272L68.3597 42.56C67.9181 42.2949 67.4625 42.1014 66.9931 41.9781C66.5229 41.846 66.0721 41.7797 65.6402 41.7797C65.1329 41.7797 64.7192 41.8412 64.4004 41.964C64.09 42.0869 63.8595 42.248 63.7098 42.4463C63.5689 42.6451 63.4983 42.872 63.4983 43.1274C63.4983 43.4298 63.6016 43.676 63.8083 43.8651C64.0242 44.0446 64.3015 44.1868 64.6397 44.2908C64.9872 44.3948 65.3726 44.4988 65.7952 44.6028C66.2178 44.6972 66.6355 44.806 67.0492 44.9289C67.4721 45.0522 67.8523 45.2128 68.1905 45.4116C68.538 45.6099 68.8153 45.8794 69.022 46.2199C69.2379 46.5605 69.3461 46.991 69.3461 47.511C69.3461 48.0407 69.2004 48.5326 68.9094 48.9864C68.6277 49.4309 68.1906 49.7903 67.5989 50.0646C67.0072 50.3293 66.2601 50.4618 65.3585 50.4618ZM74.2203 50.4618C73.4499 50.4618 72.7125 50.3529 72.0078 50.1353C71.3035 49.9084 70.7441 49.6201 70.3312 49.2703L70.9653 47.8371C71.3596 48.1495 71.848 48.4093 72.4308 48.6173C73.0128 48.8258 73.6093 48.9298 74.2203 48.9298C74.7365 48.9298 75.1547 48.8727 75.4743 48.7595C75.7936 48.6458 76.0284 48.4945 76.179 48.3053C76.3287 48.1069 76.4042 47.8845 76.4042 47.6387C76.4042 47.3359 76.296 47.095 76.0801 46.9151C75.8638 46.7259 75.5821 46.5793 75.235 46.4753C74.8968 46.3617 74.5162 46.2577 74.0936 46.1633C73.6799 46.0685 73.2622 45.9601 72.8392 45.8368C72.4255 45.7047 72.0453 45.5389 71.6978 45.3405C71.3596 45.1325 71.0823 44.8582 70.8664 44.5177C70.6501 44.1771 70.5423 43.7422 70.5423 43.2125C70.5423 42.6732 70.6836 42.1817 70.9653 41.7372C71.2563 41.283 71.693 40.9236 72.2758 40.6589C72.8675 40.3847 73.6145 40.2473 74.5162 40.2473C75.1078 40.2473 75.6947 40.3232 76.2775 40.4746C76.8599 40.626 77.3672 40.8433 77.7994 41.1272L77.2215 42.56C76.7799 42.2949 76.3243 42.1014 75.8549 41.9781C75.3847 41.846 74.9339 41.7797 74.502 41.7797C73.9947 41.7797 73.581 41.8412 73.2622 41.964C72.9522 42.0869 72.7218 42.248 72.5716 42.4463C72.4308 42.6451 72.3601 42.872 72.3601 43.1274C72.3601 43.4298 72.4635 43.676 72.6701 43.8651C72.886 44.0446 73.1633 44.1868 73.5015 44.2908C73.849 44.3948 74.2344 44.4988 74.657 44.6028C75.0796 44.6972 75.4977 44.806 75.911 44.9289C76.334 45.0522 76.7142 45.2128 77.0524 45.4116C77.3999 45.6099 77.6771 45.8794 77.8838 46.2199C78.0997 46.5605 78.2079 46.991 78.2079 47.511C78.2079 48.0407 78.0622 48.5326 77.7712 48.9864C77.4895 49.4309 77.0524 49.7903 76.4607 50.0646C75.869 50.3293 75.122 50.4618 74.2203 50.4618ZM81.7152 44.5177H86.6189V46.0356H81.7152V44.5177ZM81.856 48.7736H87.422V50.32H80.0245V40.3895H87.2247V41.9355H81.856V48.7736ZM92.5215 50.4618C91.7519 50.4618 91.0141 50.3529 90.3094 50.1353C89.6047 49.9084 89.0461 49.6201 88.6324 49.2703L89.2665 47.8371C89.6612 48.1495 90.15 48.4093 90.732 48.6173C91.3148 48.8258 91.9113 48.9298 92.5215 48.9298C93.0385 48.9298 93.4567 48.8727 93.7759 48.7595C94.0951 48.6458 94.3304 48.4945 94.4802 48.3053C94.6307 48.1069 94.7058 47.8845 94.7058 47.6387C94.7058 47.3359 94.598 47.095 94.3817 46.9151C94.1658 46.7259 93.8841 46.5793 93.5362 46.4753C93.198 46.3617 92.8178 46.2577 92.3948 46.1633C91.9815 46.0685 91.5634 45.9601 91.1408 45.8368C90.7275 45.7047 90.3473 45.5389 89.9994 45.3405C89.6612 45.1325 89.3843 44.8582 89.168 44.5177C88.9521 44.1771 88.8439 43.7422 88.8439 43.2125C88.8439 42.6732 88.9848 42.1817 89.2665 41.7372C89.5579 41.283 89.995 40.9236 90.577 40.6589C91.1691 40.3847 91.9157 40.2473 92.8178 40.2473C93.4094 40.2473 93.9967 40.3232 94.5791 40.4746C95.1619 40.626 95.6688 40.8433 96.1006 41.1272L95.5231 42.56C95.0815 42.2949 94.6263 42.1014 94.1561 41.9781C93.6867 41.846 93.2359 41.7797 92.8036 41.7797C92.2963 41.7797 91.883 41.8412 91.5634 41.964C91.2534 42.0869 91.0234 42.248 90.8732 42.4463C90.732 42.6451 90.6617 42.872 90.6617 43.1274C90.6617 43.4298 90.7655 43.676 90.9717 43.8651C91.188 44.0446 91.4649 44.1868 91.8031 44.2908C92.1506 44.3948 92.5356 44.4988 92.9586 44.6028C93.3812 44.6972 93.7993 44.806 94.2126 44.9289C94.6352 45.0522 95.0158 45.2128 95.354 45.4116C95.7019 45.6099 95.9791 45.8794 96.1854 46.2199C96.4017 46.5605 96.5095 46.991 96.5095 47.511C96.5095 48.0407 96.3642 48.5326 96.0728 48.9864C95.7907 49.4309 95.354 49.7903 94.7623 50.0646C94.1702 50.3293 93.4236 50.4618 92.5215 50.4618ZM101.384 50.4618C100.614 50.4618 99.8763 50.3529 99.1716 50.1353C98.4673 49.9084 97.9079 49.6201 97.4951 49.2703L98.1291 47.8371C98.5234 48.1495 99.0118 48.4093 99.5946 48.6173C100.177 48.8258 100.773 48.9298 101.384 48.9298C101.9 48.9298 102.318 48.8727 102.638 48.7595C102.957 48.6458 103.192 48.4945 103.343 48.3053C103.493 48.1069 103.568 47.8845 103.568 47.6387C103.568 47.3359 103.46 47.095 103.244 46.9151C103.028 46.7259 102.746 46.5793 102.398 46.4753C102.06 46.3617 101.68 46.2577 101.257 46.1633C100.844 46.0685 100.426 45.9601 100.003 45.8368C99.5893 45.7047 99.2091 45.5389 98.8617 45.3405C98.5234 45.1325 98.2462 44.8582 98.0302 44.5177C97.8139 44.1771 97.7062 43.7422 97.7062 43.2125C97.7062 42.6732 97.847 42.1817 98.1291 41.7372C98.4197 41.283 98.8568 40.9236 99.4396 40.6589C100.031 40.3847 100.778 40.2473 101.68 40.2473C102.272 40.2473 102.858 40.3232 103.441 40.4746C104.024 40.626 104.531 40.8433 104.963 41.1272L104.385 42.56C103.943 42.2949 103.488 42.1014 103.019 41.9781C102.549 41.846 102.098 41.7797 101.666 41.7797C101.159 41.7797 100.745 41.8412 100.426 41.964C100.116 42.0869 99.8852 42.248 99.7354 42.4463C99.5946 42.6451 99.524 42.872 99.524 43.1274C99.524 43.4298 99.6273 43.676 99.8339 43.8651C100.05 44.0446 100.327 44.1868 100.665 44.2908C101.013 44.3948 101.398 44.4988 101.821 44.6028C102.243 44.6972 102.661 44.806 103.075 44.9289C103.498 45.0522 103.878 45.2128 104.216 45.4116C104.564 45.6099 104.841 45.8794 105.048 46.2199C105.264 46.5605 105.372 46.991 105.372 47.511C105.372 48.0407 105.226 48.5326 104.935 48.9864C104.653 49.4309 104.216 49.7903 103.625 50.0646C103.033 50.3293 102.286 50.4618 101.384 50.4618ZM107.188 50.32V40.3895H108.696L113.008 47.6387H112.219L116.46 40.3895H117.968L117.982 50.32H116.249L116.235 43.1274H116.601L112.994 49.1852H112.176L108.513 43.1274H108.935V50.32H107.188ZM122.337 44.5177H127.24V46.0356H122.337V44.5177ZM122.478 48.7736H128.044V50.32H120.646V40.3895H127.847V41.9355H122.478V48.7736ZM130.086 50.32V40.3895H131.594L137.779 48.0359H137.033V40.3895H138.851V50.32H137.343L131.157 42.6732H131.904V50.32H130.086ZM143.494 50.32V41.95H140.225V40.3895H148.595V41.95H145.326V50.32H143.494ZM152.931 50.4618C152.161 50.4618 151.424 50.3529 150.719 50.1353C150.015 49.9084 149.456 49.6201 149.042 49.2703L149.676 47.8371C150.071 48.1495 150.56 48.4093 151.142 48.6173C151.724 48.8258 152.321 48.9298 152.931 48.9298C153.448 48.9298 153.866 48.8727 154.186 48.7595C154.505 48.6458 154.74 48.4945 154.89 48.3053C155.041 48.1069 155.116 47.8845 155.116 47.6387C155.116 47.3359 155.008 47.095 154.792 46.9151C154.576 46.7259 154.294 46.5793 153.946 46.4753C153.608 46.3617 153.227 46.2577 152.805 46.1633C152.391 46.0685 151.973 45.9601 151.551 45.8368C151.137 45.7047 150.757 45.5389 150.409 45.3405C150.071 45.1325 149.794 44.8582 149.578 44.5177C149.362 44.1771 149.254 43.7422 149.254 43.2125C149.254 42.6732 149.395 42.1817 149.676 41.7372C149.968 41.283 150.405 40.9236 150.987 40.6589C151.579 40.3847 152.326 40.2473 153.227 40.2473C153.819 40.2473 154.407 40.3232 154.989 40.4746C155.571 40.626 156.078 40.8433 156.511 41.1272L155.933 42.56C155.491 42.2949 155.036 42.1014 154.566 41.9781C154.097 41.846 153.646 41.7797 153.214 41.7797C152.706 41.7797 152.293 41.8412 151.973 41.964C151.663 42.0869 151.433 42.248 151.283 42.4463C151.142 42.6451 151.072 42.872 151.072 43.1274C151.072 43.4298 151.175 43.676 151.382 43.8651C151.598 44.0446 151.875 44.1868 152.213 44.2908C152.56 44.3948 152.946 44.4988 153.368 44.6028C153.791 44.6972 154.209 44.806 154.622 44.9289C155.045 45.0522 155.426 45.2128 155.764 45.4116C156.111 45.6099 156.388 45.8794 156.595 46.2199C156.811 46.5605 156.919 46.991 156.919 47.511C156.919 48.0407 156.774 48.5326 156.482 48.9864C156.201 49.4309 155.764 49.7903 155.172 50.0646C154.58 50.3293 153.833 50.4618 152.931 50.4618Z" fill="#C9A24D"/>
</g>
<defs>
<clipPath id="clip0_54_383">
<rect width="157" height="51" fill="white"/>
</clipPath>
</defs>
</svg>
