<svg width="157" height="51" viewBox="0 0 157 51" fill="none" xmlns="http://www.w3.org/2000/svg">
<g clip-path="url(#clip0_54_375)">
<path d="M23.5704 46.041C23.5002 45.4121 23.7854 44.8089 23.896 44.2291C24.5699 40.6747 25.0912 37.107 26.0099 33.6023C26.2284 32.7685 26.6892 31.8717 26.7234 30.9969C26.7286 30.8659 26.7848 30.7454 26.5944 30.7821L25.8265 32.0289C23.4186 32.5563 20.6009 32.2079 18.622 33.9227C17.9551 34.4998 17.5312 35.2123 16.9565 35.8401C15.018 37.9531 11.8914 39.3309 9.32988 40.5454C8.33476 42.1276 7.13692 43.7881 6.27431 45.4402C6.01371 45.9386 5.71884 47.0317 5.48192 47.3549C5.28888 47.6176 4.65616 47.8613 4.33498 48.132C3.37146 48.944 3.47326 49.6407 2.1008 50.1812C1.44353 50.4398 0.698513 50.5804 0 50.6623L0.0175506 50.376C0.506335 49.819 0.974058 48.8576 1.52866 48.3914C2.08325 47.9252 2.90287 47.7372 3.45132 47.1654C4.08753 46.502 5.08789 43.9717 5.49246 43.0059C5.99704 41.8008 6.38663 40.541 6.88245 39.3309C7.01407 39.1039 7.70995 38.9126 7.97762 38.7642C10.4505 37.3864 11.6553 34.8517 12.267 32.1773C11.7729 32.1607 11.3034 32.4428 10.8208 32.4454C9.57732 32.4515 8.52607 31.6989 8.41197 30.4328C10.9182 31.3479 12.8839 29.1546 14.8688 28.0073C19.2442 25.4796 25.178 26.0244 28.8689 22.93C30.2897 21.7391 30.7538 20.2111 31.2374 18.4858C32.881 20.8075 33.3505 23.9289 32.8327 26.7002C32.2816 29.654 30.4222 32.0865 29.0172 34.6745C27.6544 37.1847 26.4487 39.7875 25.458 42.469C25.1807 43.2207 25.0982 44.5427 24.784 45.1591C24.6629 45.3973 24.326 45.7876 23.5713 46.041H23.5704Z" fill="#2F4A3C"/>
<path d="M33.6128 10.1676C33.3232 10.4444 32.8108 10.9892 32.5255 11.2773C31.9894 11.8178 31.9534 11.8771 31.2321 12.7258C31.6507 12.6525 33.3171 11.7514 33.7453 11.4772L35.2231 10.2898C35.0625 11.2642 34.7852 12.0596 34.1674 12.8359C34.0893 12.9345 32.6528 14.0093 32.73 14.0827C34.0919 16.0219 34.0777 16.0219 34.8378 17.7245C37.1765 22.9633 35.2265 27.9191 34.8378 28.5949C34.4379 29.2902 33.7357 30.3447 33.7357 30.3447C35.4609 30.4337 37.4239 30.5402 39.0991 30.9812C40.3119 31.2999 41.2572 31.7434 40.2583 33.0452C38.7788 34.974 35.059 38.1932 32.8169 39.0663C32.5493 39.1702 31.2847 39.6592 31.1075 39.5003C31.3321 39.0131 31.4558 38.1941 31.8069 37.7994C32.2017 37.355 33.0591 37.4799 33.6216 37.2511C34.357 36.9507 36.3551 34.8736 36.9351 34.1829C37.1352 33.9454 37.7214 33.3569 37.1765 33.2469C36.413 33.0933 34.9467 33.1684 34.1314 33.2234C32.8617 33.3098 31.5936 33.5979 30.3186 33.6573C31.0083 32.6497 31.4769 31.4823 32.1561 30.473C32.7756 29.2934 33.5071 27.9572 33.6777 27.1595C34.2674 24.4039 34.0945 22.7746 33.1705 20.1256C32.637 18.5967 31.7261 17.4433 30.9679 17.2722C29.9948 17.0522 29.7692 17.6703 29.0839 18.0868C28.6627 18.3427 28.0642 18.5313 27.7132 18.8054C27.2209 19.1896 26.8699 20.136 26.138 20.2993C25.7818 20.3788 24.877 20.1352 24.8007 19.7492C24.6761 19.118 25.3377 17.8659 25.4729 17.1089C25.6159 16.3109 25.4808 15.8429 25.5045 15.1427C25.5202 14.665 25.73 14.0617 26.303 13.4479C26.303 13.4479 26.4241 12.2657 26.5873 11.8798C27.5666 9.5625 29.6447 8.67799 30.344 5.82464C30.7345 4.23031 30.5836 2.66216 30.4063 1.04688L31.0215 2.04661C32.0666 4.66598 32.014 7.50628 30.3537 9.84537C29.6824 10.791 28.5539 11.5043 28.3906 12.7302C28.5591 12.7669 28.5995 12.6446 28.6881 12.5477C30.9197 10.1169 34.1042 8.56013 34.9379 5.07723C35.3591 3.31614 34.9835 1.69648 34.5246 0L34.9493 0.491572C36.9957 3.69333 36.3059 7.59358 33.6137 10.1676H33.6128ZM27.3359 16.5353C28.1563 16.3092 28.288 15.691 28.2783 15.3373C27.4508 15.4901 27.3824 15.9128 27.3359 16.5353Z" fill="#2F4A3C"/>
<path d="M25.7388 32.4384C25.7581 33.102 23.631 35.0097 23.3317 35.2542C23.1501 35.4027 22.5472 36.7682 22.291 37.1393C20.7746 39.3352 19.0801 39.4671 16.9346 40.5289C16.158 40.9128 16.5906 41.8533 16.8187 42.5135C17.29 43.8773 18.1157 45.4426 18.823 46.7104C19.2434 47.4641 19.7207 47.7416 19.5391 48.6857C19.3829 49.3098 18.2754 48.0107 18.1508 47.8151C17.9867 47.5585 17.8656 47.1601 17.6831 46.8851C16.2878 44.7808 14.6574 42.8043 13.5728 40.5129C14.266 40.0171 14.9549 39.5003 15.5963 38.9362C16.8556 37.8282 19.2662 33.7359 20.6948 33.3534C22.3972 32.8977 24.1795 32.7597 25.7379 32.4393L25.7388 32.4384Z" fill="#2F4A3C"/>
<path d="M5.9668 50.6414L24.8345 49.3592L21.9067 46.6401L28.2481 48.399L26.4614 44.5587C27.675 45.4097 31.339 47.5196 31.339 47.5196L30.4137 45.1997L32.6398 47.2778C32.8119 46.6016 33.455 45.1997 33.455 45.1997C33.6237 45.5968 34.5146 46.8011 34.5146 46.8011C34.7819 46.7172 36.9109 42.5549 37.2793 41.9975L36.549 46.7979C37.3804 46.8558 40.2854 43.9335 40.5334 43.9206L38.9878 48.0769L44.5173 46.4787L41.4201 49.2752L45.4625 50.6382H36.3827L38.1727 49.2013L36.223 49.3592L36.6305 48.2412L35.2911 49.4576C35.2911 49.4576 35.3133 48.2797 35.2449 47.7577C35.2449 47.7577 34.4135 49.0853 33.8657 49.6716L32.1573 48.238L32.6431 49.9969L30.2076 49.0367L31.5085 50.6382H5.9668V50.6414Z" fill="#C9A24D"/>
<path d="M55.7407 38.302C54.9602 38.302 54.2406 38.1797 53.5819 37.9352C52.9329 37.6813 52.3638 37.3239 51.8747 36.863C51.3952 36.4021 51.019 35.8613 50.7462 35.2406C50.4826 34.6198 50.3511 33.9379 50.3511 33.1949C50.3511 32.4518 50.4826 31.77 50.7462 31.1492C51.019 30.5285 51.3996 29.9877 51.8888 29.5268C52.378 29.0659 52.9519 28.7132 53.6101 28.4687C54.2688 28.2147 54.9929 28.0878 55.7831 28.0878C56.6577 28.0878 57.4431 28.2335 58.1393 28.5251C58.8448 28.8167 59.4373 29.2399 59.9168 29.7949L58.4497 31.1492C58.0925 30.773 57.7018 30.4956 57.2785 30.3168C56.8551 30.1287 56.3942 30.0347 55.8957 30.0347C55.4162 30.0347 54.9787 30.1099 54.5836 30.2604C54.1885 30.4109 53.8454 30.6272 53.5536 30.9094C53.2715 31.1915 53.0503 31.5254 52.8905 31.911C52.74 32.2967 52.6649 32.7246 52.6649 33.1949C52.6649 33.6558 52.74 34.079 52.8905 34.4646C53.0503 34.8502 53.2715 35.1888 53.5536 35.4804C53.8454 35.7626 54.1841 35.9789 54.5695 36.1294C54.9646 36.2799 55.3977 36.3551 55.8675 36.3551C56.3191 36.3551 56.7566 36.2846 57.18 36.1435C57.6126 35.993 58.0308 35.7438 58.4356 35.3957L59.7335 37.0464C59.1976 37.4508 58.572 37.7612 57.8572 37.9776C57.1517 38.1938 56.4462 38.302 55.7407 38.302ZM57.6453 36.7501V33.0397H59.7335V37.0464L57.6453 36.7501ZM66.6536 38.302C65.8731 38.302 65.1486 38.175 64.4811 37.9211C63.8224 37.6672 63.2489 37.3098 62.7597 36.8489C62.2798 36.388 61.9037 35.8472 61.6309 35.2264C61.3673 34.6057 61.2357 33.9285 61.2357 33.1949C61.2357 32.4613 61.3673 31.7841 61.6309 31.1633C61.9037 30.5426 62.2847 30.0018 62.7739 29.5409C63.263 29.08 63.8365 28.7226 64.4952 28.4687C65.1535 28.2147 65.8682 28.0878 66.6395 28.0878C67.4201 28.0878 68.1353 28.2147 68.7843 28.4687C69.4429 28.7226 70.0116 29.08 70.4915 29.5409C70.9806 30.0018 71.3616 30.5426 71.6341 31.1633C71.9069 31.7747 72.0433 32.4518 72.0433 33.1949C72.0433 33.9285 71.9069 34.6104 71.6341 35.2406C71.3616 35.8613 70.9806 36.4021 70.4915 36.863C70.0116 37.3145 69.4429 37.6672 68.7843 37.9211C68.1353 38.175 67.4253 38.302 66.6536 38.302ZM66.6395 36.3551C67.0815 36.3551 67.4863 36.2799 67.8531 36.1294C68.2293 35.9789 68.5586 35.7626 68.8408 35.4804C69.1229 35.1983 69.3388 34.8643 69.4897 34.4788C69.6496 34.0931 69.7295 33.6652 69.7295 33.1949C69.7295 32.7246 69.6496 32.2967 69.4897 31.911C69.3388 31.5254 69.1229 31.1915 68.8408 30.9094C68.5679 30.6272 68.2434 30.4109 67.8673 30.2604C67.4907 30.1099 67.0815 30.0347 66.6395 30.0347C66.1976 30.0347 65.7887 30.1099 65.4122 30.2604C65.0453 30.4109 64.7208 30.6272 64.4387 30.9094C64.1566 31.1915 63.9354 31.5254 63.7756 31.911C63.625 32.2967 63.5496 32.7246 63.5496 33.1949C63.5496 33.6558 63.625 34.0837 63.7756 34.4788C63.9354 34.8643 64.1517 35.1983 64.4246 35.4804C64.7067 35.7626 65.0356 35.9789 65.4122 36.1294C65.7887 36.2799 66.1976 36.3551 66.6395 36.3551ZM73.761 38.1327V28.2571H76.0466V36.2705H80.9988V38.1327H73.761ZM82.2762 38.1327V28.2571H86.7626C87.8349 28.2571 88.7802 28.464 89.5987 28.8778C90.4167 29.2823 91.0569 29.8513 91.5174 30.5849C91.9783 31.3185 92.2087 32.1885 92.2087 33.1949C92.2087 34.1919 91.9783 35.0618 91.5174 35.8049C91.0569 36.5385 90.4167 37.1123 89.5987 37.5261C88.7802 37.9305 87.8349 38.1327 86.7626 38.1327H82.2762ZM84.5617 36.2564H86.65C87.3082 36.2564 87.8773 36.1341 88.3572 35.8895C88.8463 35.6356 89.2225 35.2782 89.4856 34.8173C89.7589 34.3564 89.8949 33.8157 89.8949 33.1949C89.8949 32.5647 89.7589 32.0239 89.4856 31.5725C89.2225 31.1116 88.8463 30.7589 88.3572 30.5144C87.8773 30.2604 87.3082 30.1334 86.65 30.1334H84.5617V36.2564ZM96.0348 32.2356H100.79V34.0132H96.0348V32.2356ZM96.2044 36.2987H101.58V38.1327H93.9329V28.2571H101.396V30.0911H96.2044V36.2987ZM103.398 38.1327V28.2571H105.289L111.116 35.3676H110.199V28.2571H112.456V38.1327H110.58L104.738 31.0222H105.655V38.1327H103.398ZM117.491 38.1327L121.893 28.2571H124.15L128.566 38.1327H126.168L122.556 29.4139H123.459L119.833 38.1327H117.491ZM119.692 36.0165L120.298 34.2812H125.378L125.998 36.0165H119.692Z" fill="#2F4A3C"/>
<path d="M50.3511 50.3201L54.7899 40.3896H56.5931L61.046 50.3201H59.1298L55.3109 41.3682H56.0438L52.2391 50.3201H50.3511ZM52.3941 48.0219L52.8873 46.5747H58.214L58.7068 48.0219H52.3941ZM65.3585 50.4619C64.588 50.4619 63.8507 50.3531 63.146 50.1354C62.4417 49.9085 61.8823 49.6202 61.4694 49.2704L62.1035 47.8372C62.4978 48.1496 62.9861 48.4094 63.5689 48.6175C64.1509 48.8259 64.7474 48.9299 65.3585 48.9299C65.8747 48.9299 66.2928 48.8729 66.6125 48.7596C66.9317 48.646 67.1666 48.4946 67.3172 48.3054C67.4669 48.1071 67.5424 47.8846 67.5424 47.6388C67.5424 47.336 67.4342 47.0951 67.2183 46.9152C67.002 46.726 66.7202 46.5795 66.3727 46.4755C66.0349 46.3618 65.6543 46.2578 65.2314 46.1634C64.8181 46.0687 64.4004 45.9602 63.9774 45.837C63.5637 45.7048 63.1835 45.539 62.836 45.3406C62.4978 45.1326 62.2205 44.8583 62.0046 44.5178C61.7883 44.1772 61.6805 43.7423 61.6805 43.2127C61.6805 42.6734 61.8214 42.1818 62.1035 41.7373C62.3941 41.2831 62.8312 40.9237 63.414 40.6591C64.0056 40.3848 64.7523 40.2474 65.6543 40.2474C66.246 40.2474 66.8328 40.3233 67.4156 40.4747C67.998 40.6261 68.5054 40.8434 68.9376 41.1273L68.3597 42.5601C67.9181 42.2951 67.4625 42.1015 66.9931 41.9782C66.5229 41.8461 66.0721 41.7798 65.6402 41.7798C65.1329 41.7798 64.7192 41.8413 64.4004 41.9642C64.09 42.0871 63.8595 42.2481 63.7098 42.4465C63.5689 42.6452 63.4983 42.8721 63.4983 43.1275C63.4983 43.4299 63.6016 43.6761 63.8083 43.8652C64.0242 44.0447 64.3015 44.1869 64.6397 44.2909C64.9872 44.3949 65.3726 44.4989 65.7952 44.6029C66.2178 44.6973 66.6355 44.8061 67.0492 44.929C67.4721 45.0523 67.8523 45.2129 68.1905 45.4117C68.538 45.6101 68.8153 45.8795 69.022 46.2201C69.2379 46.5606 69.3461 46.9911 69.3461 47.5111C69.3461 48.0408 69.2004 48.5327 68.9094 48.9865C68.6277 49.4311 68.1906 49.7905 67.5989 50.0647C67.0072 50.3294 66.2601 50.4619 65.3585 50.4619ZM74.2203 50.4619C73.4499 50.4619 72.7125 50.3531 72.0078 50.1354C71.3035 49.9085 70.7441 49.6202 70.3312 49.2704L70.9653 47.8372C71.3596 48.1496 71.848 48.4094 72.4308 48.6175C73.0128 48.8259 73.6093 48.9299 74.2203 48.9299C74.7365 48.9299 75.1547 48.8729 75.4743 48.7596C75.7936 48.646 76.0284 48.4946 76.179 48.3054C76.3287 48.1071 76.4042 47.8846 76.4042 47.6388C76.4042 47.336 76.296 47.0951 76.0801 46.9152C75.8638 46.726 75.5821 46.5795 75.235 46.4755C74.8968 46.3618 74.5162 46.2578 74.0936 46.1634C73.6799 46.0687 73.2622 45.9602 72.8392 45.837C72.4255 45.7048 72.0453 45.539 71.6978 45.3406C71.3596 45.1326 71.0823 44.8583 70.8664 44.5178C70.6501 44.1772 70.5423 43.7423 70.5423 43.2127C70.5423 42.6734 70.6836 42.1818 70.9653 41.7373C71.2563 41.2831 71.693 40.9237 72.2758 40.6591C72.8675 40.3848 73.6145 40.2474 74.5162 40.2474C75.1078 40.2474 75.6947 40.3233 76.2775 40.4747C76.8599 40.6261 77.3672 40.8434 77.7994 41.1273L77.2215 42.5601C76.7799 42.2951 76.3243 42.1015 75.8549 41.9782C75.3847 41.8461 74.9339 41.7798 74.502 41.7798C73.9947 41.7798 73.581 41.8413 73.2622 41.9642C72.9522 42.0871 72.7218 42.2481 72.5716 42.4465C72.4308 42.6452 72.3601 42.8721 72.3601 43.1275C72.3601 43.4299 72.4635 43.6761 72.6701 43.8652C72.886 44.0447 73.1633 44.1869 73.5015 44.2909C73.849 44.3949 74.2344 44.4989 74.657 44.6029C75.0796 44.6973 75.4977 44.8061 75.911 44.929C76.334 45.0523 76.7142 45.2129 77.0524 45.4117C77.3999 45.6101 77.6771 45.8795 77.8838 46.2201C78.0997 46.5606 78.2079 46.9911 78.2079 47.5111C78.2079 48.0408 78.0622 48.5327 77.7712 48.9865C77.4895 49.4311 77.0524 49.7905 76.4607 50.0647C75.869 50.3294 75.122 50.4619 74.2203 50.4619ZM81.7152 44.5178H86.6189V46.0357H81.7152V44.5178ZM81.856 48.7737H87.422V50.3201H80.0245V40.3896H87.2247V41.9357H81.856V48.7737ZM92.5215 50.4619C91.7519 50.4619 91.0141 50.3531 90.3094 50.1354C89.6047 49.9085 89.0461 49.6202 88.6324 49.2704L89.2665 47.8372C89.6612 48.1496 90.15 48.4094 90.732 48.6175C91.3148 48.8259 91.9113 48.9299 92.5215 48.9299C93.0385 48.9299 93.4567 48.8729 93.7759 48.7596C94.0951 48.646 94.3304 48.4946 94.4802 48.3054C94.6307 48.1071 94.7058 47.8846 94.7058 47.6388C94.7058 47.336 94.598 47.0951 94.3817 46.9152C94.1658 46.726 93.8841 46.5795 93.5362 46.4755C93.198 46.3618 92.8178 46.2578 92.3948 46.1634C91.9815 46.0687 91.5634 45.9602 91.1408 45.837C90.7275 45.7048 90.3473 45.539 89.9994 45.3406C89.6612 45.1326 89.3843 44.8583 89.168 44.5178C88.9521 44.1772 88.8439 43.7423 88.8439 43.2127C88.8439 42.6734 88.9848 42.1818 89.2665 41.7373C89.5579 41.2831 89.995 40.9237 90.577 40.6591C91.1691 40.3848 91.9157 40.2474 92.8178 40.2474C93.4094 40.2474 93.9967 40.3233 94.5791 40.4747C95.1619 40.6261 95.6688 40.8434 96.1006 41.1273L95.5231 42.5601C95.0815 42.2951 94.6263 42.1015 94.1561 41.9782C93.6867 41.8461 93.2359 41.7798 92.8036 41.7798C92.2963 41.7798 91.883 41.8413 91.5634 41.9642C91.2534 42.0871 91.0234 42.2481 90.8732 42.4465C90.732 42.6452 90.6617 42.8721 90.6617 43.1275C90.6617 43.4299 90.7655 43.6761 90.9717 43.8652C91.188 44.0447 91.4649 44.1869 91.8031 44.2909C92.1506 44.3949 92.5356 44.4989 92.9586 44.6029C93.3812 44.6973 93.7993 44.8061 94.2126 44.929C94.6352 45.0523 95.0158 45.2129 95.354 45.4117C95.7019 45.6101 95.9791 45.8795 96.1854 46.2201C96.4017 46.5606 96.5095 46.9911 96.5095 47.5111C96.5095 48.0408 96.3642 48.5327 96.0728 48.9865C95.7907 49.4311 95.354 49.7905 94.7623 50.0647C94.1702 50.3294 93.4236 50.4619 92.5215 50.4619ZM101.384 50.4619C100.614 50.4619 99.8763 50.3531 99.1716 50.1354C98.4673 49.9085 97.9079 49.6202 97.4951 49.2704L98.1291 47.8372C98.5234 48.1496 99.0118 48.4094 99.5946 48.6175C100.177 48.8259 100.773 48.9299 101.384 48.9299C101.9 48.9299 102.318 48.8729 102.638 48.7596C102.957 48.646 103.192 48.4946 103.343 48.3054C103.493 48.1071 103.568 47.8846 103.568 47.6388C103.568 47.336 103.46 47.0951 103.244 46.9152C103.028 46.726 102.746 46.5795 102.398 46.4755C102.06 46.3618 101.68 46.2578 101.257 46.1634C100.844 46.0687 100.426 45.9602 100.003 45.837C99.5893 45.7048 99.2091 45.539 98.8617 45.3406C98.5234 45.1326 98.2462 44.8583 98.0302 44.5178C97.8139 44.1772 97.7062 43.7423 97.7062 43.2127C97.7062 42.6734 97.847 42.1818 98.1291 41.7373C98.4197 41.2831 98.8568 40.9237 99.4396 40.6591C100.031 40.3848 100.778 40.2474 101.68 40.2474C102.272 40.2474 102.858 40.3233 103.441 40.4747C104.024 40.6261 104.531 40.8434 104.963 41.1273L104.385 42.5601C103.943 42.2951 103.488 42.1015 103.019 41.9782C102.549 41.8461 102.098 41.7798 101.666 41.7798C101.159 41.7798 100.745 41.8413 100.426 41.9642C100.116 42.0871 99.8852 42.2481 99.7354 42.4465C99.5946 42.6452 99.524 42.8721 99.524 43.1275C99.524 43.4299 99.6273 43.6761 99.8339 43.8652C100.05 44.0447 100.327 44.1869 100.665 44.2909C101.013 44.3949 101.398 44.4989 101.821 44.6029C102.243 44.6973 102.661 44.8061 103.075 44.929C103.498 45.0523 103.878 45.2129 104.216 45.4117C104.564 45.6101 104.841 45.8795 105.048 46.2201C105.264 46.5606 105.372 46.9911 105.372 47.5111C105.372 48.0408 105.226 48.5327 104.935 48.9865C104.653 49.4311 104.216 49.7905 103.625 50.0647C103.033 50.3294 102.286 50.4619 101.384 50.4619ZM107.188 50.3201V40.3896H108.696L113.008 47.6388H112.219L116.46 40.3896H117.968L117.982 50.3201H116.249L116.235 43.1275H116.601L112.994 49.1853H112.176L108.513 43.1275H108.935V50.3201H107.188ZM122.337 44.5178H127.24V46.0357H122.337V44.5178ZM122.478 48.7737H128.044V50.3201H120.646V40.3896H127.847V41.9357H122.478V48.7737ZM130.086 50.3201V40.3896H131.594L137.779 48.036H137.033V40.3896H138.851V50.3201H137.343L131.157 42.6734H131.904V50.3201H130.086ZM143.494 50.3201V41.9501H140.225V40.3896H148.595V41.9501H145.326V50.3201H143.494ZM152.931 50.4619C152.161 50.4619 151.424 50.3531 150.719 50.1354C150.015 49.9085 149.456 49.6202 149.042 49.2704L149.676 47.8372C150.071 48.1496 150.56 48.4094 151.142 48.6175C151.724 48.8259 152.321 48.9299 152.931 48.9299C153.448 48.9299 153.866 48.8729 154.186 48.7596C154.505 48.646 154.74 48.4946 154.89 48.3054C155.041 48.1071 155.116 47.8846 155.116 47.6388C155.116 47.336 155.008 47.0951 154.792 46.9152C154.576 46.726 154.294 46.5795 153.946 46.4755C153.608 46.3618 153.227 46.2578 152.805 46.1634C152.391 46.0687 151.973 45.9602 151.551 45.837C151.137 45.7048 150.757 45.539 150.409 45.3406C150.071 45.1326 149.794 44.8583 149.578 44.5178C149.362 44.1772 149.254 43.7423 149.254 43.2127C149.254 42.6734 149.395 42.1818 149.676 41.7373C149.968 41.2831 150.405 40.9237 150.987 40.6591C151.579 40.3848 152.326 40.2474 153.227 40.2474C153.819 40.2474 154.407 40.3233 154.989 40.4747C155.571 40.6261 156.078 40.8434 156.511 41.1273L155.933 42.5601C155.491 42.2951 155.036 42.1015 154.566 41.9782C154.097 41.8461 153.646 41.7798 153.214 41.7798C152.706 41.7798 152.293 41.8413 151.973 41.9642C151.663 42.0871 151.433 42.2481 151.283 42.4465C151.142 42.6452 151.072 42.8721 151.072 43.1275C151.072 43.4299 151.175 43.6761 151.382 43.8652C151.598 44.0447 151.875 44.1869 152.213 44.2909C152.56 44.3949 152.946 44.4989 153.368 44.6029C153.791 44.6973 154.209 44.8061 154.622 44.929C155.045 45.0523 155.426 45.2129 155.764 45.4117C156.111 45.6101 156.388 45.8795 156.595 46.2201C156.811 46.5606 156.919 46.9911 156.919 47.5111C156.919 48.0408 156.774 48.5327 156.482 48.9865C156.201 49.4311 155.764 49.7905 155.172 50.0647C154.58 50.3294 153.833 50.4619 152.931 50.4619Z" fill="#C9A24D"/>
</g>
<defs>
<clipPath id="clip0_54_375">
<rect width="157" height="51" fill="white"/>
</clipPath>
</defs>
</svg>
